<mxfile host="65bd71144e">
    <diagram id="Qf_YNUfa7iPkTjY-41Da" name="Page-1">
        <mxGraphModel dx="1990" dy="993" grid="1" gridSize="10" guides="1" tooltips="1" connect="1" arrows="1" fold="1" page="1" pageScale="1" pageWidth="850" pageHeight="1100" math="0" shadow="0">
            <root>
                <mxCell id="0"/>
                <mxCell id="1" parent="0"/>
                <mxCell id="11" style="edgeStyle=none;html=1;exitX=1;exitY=0.25;exitDx=0;exitDy=0;fontSize=20;fontColor=#fff;" edge="1" parent="1" source="2" target="6">
                    <mxGeometry relative="1" as="geometry"/>
                </mxCell>
                <mxCell id="12" style="edgeStyle=none;html=1;exitX=0.25;exitY=1;exitDx=0;exitDy=0;fontSize=20;fontColor=#fff;" edge="1" parent="1" source="2" target="8">
                    <mxGeometry relative="1" as="geometry"/>
                </mxCell>
                <mxCell id="13" style="edgeStyle=none;html=1;exitX=0.5;exitY=0;exitDx=0;exitDy=0;fontSize=20;fontColor=#fff;" edge="1" parent="1" source="2" target="4">
                    <mxGeometry relative="1" as="geometry"/>
                </mxCell>
                <mxCell id="2" value="&lt;font style=&quot;font-size: 20px;&quot; color=&quot;#080808&quot;&gt;Server&lt;/font&gt;" style="whiteSpace=wrap;html=1;aspect=fixed;fillColor=#b0e3e6;strokeColor=#0e8088;" vertex="1" parent="1">
                    <mxGeometry x="380" y="240" width="100" height="100" as="geometry"/>
                </mxCell>
                <mxCell id="14" style="edgeStyle=none;html=1;exitX=0;exitY=1;exitDx=0;exitDy=-15;exitPerimeter=0;fontSize=20;fontColor=#fff;" edge="1" parent="1" source="4">
                    <mxGeometry relative="1" as="geometry">
                        <mxPoint x="480" y="270" as="targetPoint"/>
                    </mxGeometry>
                </mxCell>
                <mxCell id="4" value="DB" style="shape=cylinder3;whiteSpace=wrap;html=1;boundedLbl=1;backgroundOutline=1;size=15;labelBackgroundColor=#18141D;fontSize=20;fillColor=#fad7ac;strokeColor=#b46504;" vertex="1" parent="1">
                    <mxGeometry x="720" y="220" width="70" height="80" as="geometry"/>
                </mxCell>
                <mxCell id="15" style="edgeStyle=none;html=1;exitX=0.5;exitY=0;exitDx=0;exitDy=0;fontSize=20;fontColor=#fff;" edge="1" parent="1" source="5" target="2">
                    <mxGeometry relative="1" as="geometry"/>
                </mxCell>
                <mxCell id="21" style="edgeStyle=none;html=1;exitX=0.75;exitY=1;exitDx=0;exitDy=0;entryX=1;entryY=0;entryDx=0;entryDy=0;fontSize=20;fontColor=#fff;" edge="1" parent="1" source="5" target="19">
                    <mxGeometry relative="1" as="geometry"/>
                </mxCell>
                <mxCell id="22" style="edgeStyle=none;html=1;exitX=0.25;exitY=1;exitDx=0;exitDy=0;entryX=0;entryY=0;entryDx=0;entryDy=0;fontSize=20;fontColor=#fff;" edge="1" parent="1" source="5" target="19">
                    <mxGeometry relative="1" as="geometry"/>
                </mxCell>
                <mxCell id="5" value="&lt;font color=&quot;#ffffff&quot;&gt;UI&lt;/font&gt;" style="rounded=0;whiteSpace=wrap;html=1;labelBackgroundColor=#18141D;fontSize=20;fontColor=#080808;" vertex="1" parent="1">
                    <mxGeometry x="110" y="660" width="120" height="60" as="geometry"/>
                </mxCell>
                <mxCell id="18" style="edgeStyle=none;html=1;exitX=0.75;exitY=1;exitDx=0;exitDy=0;entryX=1;entryY=1;entryDx=0;entryDy=0;fontSize=20;fontColor=#fff;" edge="1" parent="1" source="6" target="5">
                    <mxGeometry relative="1" as="geometry"/>
                </mxCell>
                <mxCell id="6" value="API-1" style="shape=process;whiteSpace=wrap;html=1;backgroundOutline=1;labelBackgroundColor=#18141D;fontSize=20;fontColor=#fff;" vertex="1" parent="1">
                    <mxGeometry x="500" y="520" width="80" height="60" as="geometry"/>
                </mxCell>
                <mxCell id="17" style="edgeStyle=none;html=1;exitX=0.25;exitY=1;exitDx=0;exitDy=0;fontSize=20;fontColor=#fff;entryX=0.173;entryY=0.021;entryDx=0;entryDy=0;entryPerimeter=0;" edge="1" parent="1" source="7" target="5">
                    <mxGeometry relative="1" as="geometry"/>
                </mxCell>
                <mxCell id="7" value="API-2" style="shape=process;whiteSpace=wrap;html=1;backgroundOutline=1;labelBackgroundColor=#18141D;fontSize=20;fontColor=#fff;" vertex="1" parent="1">
                    <mxGeometry x="150" y="380" width="80" height="60" as="geometry"/>
                </mxCell>
                <mxCell id="16" style="edgeStyle=none;html=1;exitX=0.25;exitY=1;exitDx=0;exitDy=0;entryX=1;entryY=0.75;entryDx=0;entryDy=0;fontSize=20;fontColor=#fff;" edge="1" parent="1" source="8" target="5">
                    <mxGeometry relative="1" as="geometry"/>
                </mxCell>
                <mxCell id="8" value="API-3" style="shape=process;whiteSpace=wrap;html=1;backgroundOutline=1;labelBackgroundColor=#18141D;fontSize=20;fontColor=#fff;" vertex="1" parent="1">
                    <mxGeometry x="280" y="500" width="80" height="60" as="geometry"/>
                </mxCell>
                <mxCell id="10" value="" style="curved=1;endArrow=classic;html=1;fontSize=20;fontColor=#fff;exitX=0.25;exitY=0;exitDx=0;exitDy=0;" edge="1" parent="1" source="7">
                    <mxGeometry width="50" height="50" relative="1" as="geometry">
                        <mxPoint x="340" y="320" as="sourcePoint"/>
                        <mxPoint x="390" y="270" as="targetPoint"/>
                        <Array as="points">
                            <mxPoint x="270" y="380"/>
                            <mxPoint x="390" y="320"/>
                            <mxPoint x="240" y="270"/>
                        </Array>
                    </mxGeometry>
                </mxCell>
                <mxCell id="20" style="edgeStyle=none;html=1;exitX=0.5;exitY=0;exitDx=0;exitDy=0;entryX=0.5;entryY=1;entryDx=0;entryDy=0;fontSize=20;fontColor=#fff;" edge="1" parent="1" source="19" target="5">
                    <mxGeometry relative="1" as="geometry"/>
                </mxCell>
                <mxCell id="19" value="User" style="ellipse;whiteSpace=wrap;html=1;labelBackgroundColor=#18141D;fontSize=20;fontColor=#fff;" vertex="1" parent="1">
                    <mxGeometry x="130" y="830" width="80" height="80" as="geometry"/>
                </mxCell>
                <mxCell id="23" value="All project design" style="swimlane;whiteSpace=wrap;html=1;labelBackgroundColor=#18141D;fontSize=20;fontColor=#fff;" vertex="1" parent="1">
                    <mxGeometry x="570" y="760" width="220" height="200" as="geometry"/>
                </mxCell>
                <mxCell id="24" value="Api integration and&lt;br&gt;DB Server connection" style="text;html=1;align=center;verticalAlign=middle;resizable=0;points=[];autosize=1;strokeColor=none;fillColor=none;fontSize=20;fontColor=#fff;" vertex="1" parent="23">
                    <mxGeometry y="80" width="220" height="60" as="geometry"/>
                </mxCell>
            </root>
        </mxGraphModel>
    </diagram>
</mxfile>